<svg width="1440" height="536" viewBox="0 0 1440 536" fill="none" xmlns="http://www.w3.org/2000/svg">
<path d="M0 0V371.865C0 371.865 251.233 525.341 436.433 535.591C646.127 547.196 755.363 307.669 945.879 384.855C1029.39 418.688 1028.15 513.918 1119.55 523.834C1206.19 533.234 1241.95 471.665 1320.02 437.617C1366.95 417.148 1440 384.855 1440 384.855V1.32886e-05L783.093 0H0Z" fill="url(#paint0_linear)"/>
<path d="M0 302.518V371.865C0 371.865 251.233 525.341 436.433 535.59C646.127 547.196 755.363 307.669 945.879 384.855C1029.39 418.688 1028.15 513.918 1119.55 523.834C1206.19 533.234 1241.95 471.665 1320.02 437.617C1366.95 417.148 1440 384.855 1440 384.855V293.074C1440 293.074 1285.97 439.829 1150.5 423.981C1033.03 410.238 1011.5 291.63 873.5 274.513C669.368 249.193 633.079 434.101 436.433 437.617C247.794 440.989 0 302.518 0 302.518Z" fill="#4B2DB2"/>
<defs>
<linearGradient id="paint0_linear" x1="1224.09" y1="-45.2849" x2="953.36" y2="468.856" gradientUnits="userSpaceOnUse">
<stop stop-color="#7051DC"/>
<stop offset="1" stop-color="#7051DC"/>
</linearGradient>
</defs>
</svg>
