<svg width="1280" height="284" viewBox="0 0 1280 284" fill="none" xmlns="http://www.w3.org/2000/svg">
<path d="M0 0V197.033C0 197.033 251.233 278.352 436.433 283.783C646.127 289.932 755.363 163.019 945.879 203.916C1029.39 221.842 1028.15 272.3 1119.55 277.554C1206.19 282.534 1241.95 249.912 1320.02 231.872C1366.95 221.026 1440 203.916 1440 203.916V7.04095e-06L783.093 0H0Z" fill="url(#paint0_linear)"/>
<path d="M0 160.289V197.033C0 197.033 251.233 278.352 436.433 283.783C646.127 289.932 755.363 163.019 945.879 203.916C1029.39 221.842 1028.15 272.3 1119.55 277.554C1206.19 282.534 1241.95 249.912 1320.02 231.872C1366.95 221.026 1440 203.916 1440 203.916V155.286C1440 155.286 1285.97 233.044 1150.5 224.646C1033.03 217.365 1011.5 154.52 873.5 145.451C669.368 132.035 633.079 230.009 436.433 231.872C247.794 233.658 0 160.289 0 160.289Z" fill="#4B2DB2"/>
<defs>
<linearGradient id="paint0_linear" x1="1224.09" y1="-23.9942" x2="1134.02" y2="298.827" gradientUnits="userSpaceOnUse">
<stop stop-color="#7051DC"/>
<stop offset="1" stop-color="#7051DC"/>
</linearGradient>
</defs>
</svg>
