<svg width="11" height="13" viewBox="0 0 11 13" fill="none" xmlns="http://www.w3.org/2000/svg">
<path d="M6.688 2.832C5.52533 2.832 4.68267 3.15733 4.16 3.808C3.648 4.448 3.392 5.328 3.392 6.448C3.392 6.992 3.456 7.488 3.584 7.936C3.712 8.37333 3.904 8.752 4.16 9.072C4.416 9.392 4.736 9.64267 5.12 9.824C5.504 9.99467 5.952 10.08 6.464 10.08C6.74133 10.08 6.976 10.0747 7.168 10.064C7.37067 10.0533 7.54667 10.032 7.696 10V6.144H10.192V11.632C9.89333 11.7493 9.41333 11.872 8.752 12C8.09067 12.1387 7.27467 12.208 6.304 12.208C5.472 12.208 4.71467 12.08 4.032 11.824C3.36 11.568 2.784 11.1947 2.304 10.704C1.824 10.2133 1.45067 9.61067 1.184 8.896C0.928 8.18133 0.8 7.36533 0.8 6.448C0.8 5.52 0.944 4.69867 1.232 3.984C1.52 3.26933 1.91467 2.66667 2.416 2.176C2.91733 1.67467 3.504 1.296 4.176 1.04C4.85867 0.783999 5.584 0.655999 6.352 0.655999C6.87467 0.655999 7.344 0.693333 7.76 0.768C8.18667 0.831999 8.54933 0.911999 8.848 1.008C9.15733 1.09333 9.408 1.184 9.6 1.28C9.80267 1.376 9.94667 1.45067 10.032 1.504L9.312 3.504C8.97067 3.32267 8.576 3.168 8.128 3.04C7.69067 2.90133 7.21067 2.832 6.688 2.832Z" fill="#7051DC"/>
</svg>
