<svg width="1440" height="838" viewBox="0 0 1440 838" fill="none" xmlns="http://www.w3.org/2000/svg">
<path d="M1405.87 200.822C1312.75 198.758 1288.17 299.948 1192.32 319.73C1051.02 348.893 966.416 301.109 835.057 230.83C684.38 150.215 651.398 52.9473 498.355 53.7307C312.218 54.6835 308.3 280.243 127.573 320.15C24.6187 342.884 -51.036 365.327 -143.95 320.217C-274.54 256.815 -266.757 0.0501092 -266.757 0.0501092L-265.329 864.128L1590.82 849.996C1590.82 849.996 1650.65 701.236 1648.73 598.941C1644.99 400.652 1567.68 204.409 1405.87 200.822Z" fill="url(#paint0_linear)"/>
<defs>
<linearGradient id="paint0_linear" x1="-16.4821" y1="964.933" x2="719.39" y2="240.82" gradientUnits="userSpaceOnUse">
<stop stop-color="#7051DC"/>
<stop offset="1" stop-color="#7051DC"/>
</linearGradient>
</defs>
</svg>
