<svg width="150" height="30" viewBox="0 0 150 30" fill="none" xmlns="http://www.w3.org/2000/svg">
<g clip-path="url(#clip0)">
<path d="M0.568176 11.7346L15.2273 5.46923L16.5568 9.65769L5.85227 13.8808L16.5568 18.1038L15.2273 22.2923L0.568176 16.0269V11.7346ZM123.955 28.9269H120.13C123.41 19.3308 126.265 9.59608 129.545 0H133.337L123.955 28.9269ZM149.326 16.0269L134.667 22.2923L133.337 18.1038L144.042 13.8808L133.337 9.65769L134.667 5.46923L149.326 11.7346V16.0269Z" fill="#7051DC"/>
<path d="M30.5895 7.04078C28.4425 7.04078 26.8865 7.65078 25.9213 8.87078C24.9759 10.0708 24.5032 11.7208 24.5032 13.8208C24.5032 14.8408 24.6213 15.7708 24.8577 16.6108C25.0941 17.4308 25.4486 18.1408 25.9213 18.7408C26.3941 19.3408 26.985 19.8107 27.6941 20.1508C28.4032 20.4707 29.2304 20.6308 30.1759 20.6308C30.6879 20.6308 31.1213 20.6207 31.4759 20.6008C31.8501 20.5808 32.1751 20.5408 32.4509 20.4808V13.2508H37.06V23.5408C36.5084 23.7608 35.622 23.9908 34.4009 24.2308C33.1796 24.4907 31.6728 24.6208 29.8804 24.6208C28.3441 24.6208 26.9455 24.3808 25.685 23.9008C24.4441 23.4208 23.3804 22.7207 22.4941 21.8008C21.6077 20.8808 20.9183 19.7507 20.4259 18.4108C19.9532 17.0708 19.7168 15.5408 19.7168 13.8208C19.7168 12.0808 19.9827 10.5408 20.5145 9.20078C21.0463 7.86078 21.7751 6.73077 22.7009 5.81078C23.6266 4.87077 24.71 4.16078 25.9509 3.68078C27.2115 3.20078 28.5509 2.96078 29.9691 2.96078C30.9342 2.96078 31.8009 3.03078 32.5691 3.17078C33.3569 3.29078 34.0266 3.44078 34.5782 3.62078C35.1493 3.78078 35.6123 3.95078 35.9668 4.13078C36.341 4.31078 36.6069 4.45077 36.7645 4.55078L35.435 8.30078C34.8046 7.96077 34.0759 7.67078 33.2486 7.43078C32.441 7.17078 31.5546 7.04078 30.5895 7.04078ZM46.9916 21.1108C47.425 21.1108 47.8386 21.1007 48.2325 21.0808C48.6265 21.0608 48.9416 21.0308 49.1779 20.9908V17.6008C49.0007 17.5607 48.7348 17.5208 48.3802 17.4808C48.0257 17.4407 47.7007 17.4208 47.4052 17.4208C46.9916 17.4208 46.5977 17.4508 46.2234 17.5108C45.8688 17.5508 45.5537 17.6408 45.2779 17.7808C45.0023 17.9207 44.7855 18.1108 44.6279 18.3508C44.4704 18.5908 44.3916 18.8908 44.3916 19.2508C44.3916 19.9508 44.6182 20.4407 45.0711 20.7208C45.5438 20.9807 46.1841 21.1108 46.9916 21.1108ZM46.637 8.03078C47.937 8.03078 49.0204 8.18078 49.887 8.48078C50.7537 8.78078 51.4432 9.21078 51.9552 9.77078C52.487 10.3308 52.8613 11.0108 53.0779 11.8108C53.2946 12.6107 53.4029 13.5008 53.4029 14.4808V23.7808C52.7727 23.9207 51.8961 24.0808 50.7734 24.2608C49.6507 24.4607 48.2916 24.5608 46.6961 24.5608C45.6916 24.5608 44.7757 24.4708 43.9484 24.2908C43.1409 24.1108 42.4416 23.8208 41.8507 23.4208C41.2598 23.0008 40.8068 22.4608 40.4916 21.8008C40.1765 21.1408 40.0188 20.3308 40.0188 19.3708C40.0188 18.4508 40.1961 17.6708 40.5507 17.0308C40.925 16.3907 41.4174 15.8807 42.0279 15.5008C42.6386 15.1208 43.3378 14.8508 44.1257 14.6908C44.9136 14.5108 45.731 14.4208 46.5779 14.4208C47.1492 14.4208 47.6515 14.4508 48.0848 14.5108C48.5378 14.5508 48.9023 14.6108 49.1779 14.6908V14.2708C49.1779 13.5107 48.9515 12.9008 48.4984 12.4408C48.0454 11.9807 47.2575 11.7508 46.1348 11.7508C45.3863 11.7508 44.6477 11.8108 43.9188 11.9308C43.1901 12.0308 42.5598 12.1808 42.0279 12.3808L41.4666 8.78078C41.7227 8.70078 42.0378 8.62077 42.412 8.54078C42.806 8.44077 43.2295 8.36078 43.6825 8.30078C44.1356 8.22078 44.6083 8.16078 45.1007 8.12078C45.6128 8.06078 46.125 8.03078 46.637 8.03078ZM67.3406 16.2208C67.3406 13.3408 66.2967 11.9008 64.2087 11.9008C63.7558 11.9008 63.3027 11.9608 62.8496 12.0808C62.4163 12.2008 62.0618 12.3508 61.786 12.5308V20.6608C62.0027 20.7008 62.2785 20.7407 62.6133 20.7808C62.9482 20.8007 63.3126 20.8108 63.7065 20.8108C64.9081 20.8108 65.8141 20.3908 66.4246 19.5508C67.0353 18.7108 67.3406 17.6008 67.3406 16.2208ZM71.8315 16.3408C71.8315 17.6008 71.6444 18.7408 71.2701 19.7608C70.9156 20.7808 70.3936 21.6508 69.7042 22.3708C69.0149 23.0908 68.1678 23.6507 67.1633 24.0508C66.1587 24.4307 65.0163 24.6208 63.736 24.6208C63.2042 24.6208 62.6428 24.5908 62.0519 24.5308C61.4808 24.4907 60.9095 24.4307 60.3383 24.3508C59.7868 24.2708 59.255 24.1808 58.7428 24.0808C58.2308 23.9608 57.7777 23.8408 57.3837 23.7208V1.67078L61.786 0.950775V8.81078C62.2785 8.59077 62.7906 8.42078 63.3224 8.30078C63.8542 8.18078 64.4254 8.12078 65.036 8.12078C66.1391 8.12078 67.1141 8.32077 67.961 8.72078C68.8081 9.10077 69.5171 9.65078 70.0883 10.3708C70.6595 11.0908 71.0928 11.9608 71.3883 12.9808C71.6837 13.9808 71.8315 15.1007 71.8315 16.3408ZM84.5808 12.4108C84.1869 12.3107 83.724 12.2108 83.1921 12.1108C82.6603 11.9908 82.0892 11.9308 81.4785 11.9308C81.2028 11.9308 80.8679 11.9608 80.474 12.0208C80.0998 12.0608 79.8142 12.1108 79.6171 12.1708V24.2308H75.2149V9.29078C76.0028 9.01077 76.9285 8.75078 77.9921 8.51078C79.0756 8.25078 80.277 8.12078 81.5967 8.12078C81.8331 8.12078 82.1187 8.14077 82.4535 8.18078C82.7884 8.20077 83.1233 8.24078 83.4581 8.30078C83.7929 8.34078 84.1278 8.40078 84.4626 8.48078C84.7975 8.54078 85.0831 8.62077 85.3194 8.72078L84.5808 12.4108ZM92.0817 24.2308H87.6794V8.45078H92.0817V24.2308ZM92.4953 3.89078C92.4953 4.71078 92.2294 5.36078 91.6976 5.84078C91.1854 6.30078 90.5749 6.53078 89.8658 6.53078C89.1567 6.53078 88.5362 6.30078 88.0044 5.84078C87.4923 5.36078 87.2362 4.71078 87.2362 3.89078C87.2362 3.07077 87.4923 2.43078 88.0044 1.97078C88.5362 1.49078 89.1567 1.25078 89.8658 1.25078C90.5749 1.25078 91.1854 1.49078 91.6976 1.97078C92.2294 2.43078 92.4953 3.07077 92.4953 3.89078ZM95.4812 16.4608C95.4812 15.0608 95.6881 13.8407 96.1017 12.8008C96.535 11.7407 97.0964 10.8608 97.7858 10.1608C98.4752 9.46077 99.2631 8.93078 100.149 8.57078C101.055 8.21078 101.981 8.03078 102.927 8.03078C105.133 8.03078 106.876 8.72078 108.156 10.1008C109.437 11.4608 110.077 13.4708 110.077 16.1308C110.077 16.3907 110.067 16.6808 110.047 17.0008C110.027 17.3008 110.008 17.5708 109.988 17.8108H100.002C100.1 18.7307 100.524 19.4608 101.272 20.0008C102.021 20.5408 103.025 20.8108 104.286 20.8108C105.093 20.8108 105.881 20.7407 106.649 20.6008C107.437 20.4407 108.077 20.2508 108.57 20.0308L109.161 23.6608C108.924 23.7808 108.609 23.9008 108.215 24.0208C107.821 24.1408 107.378 24.2408 106.886 24.3208C106.413 24.4208 105.901 24.5008 105.349 24.5608C104.798 24.6208 104.246 24.6508 103.695 24.6508C102.296 24.6508 101.075 24.4408 100.031 24.0208C99.007 23.6008 98.1502 23.0308 97.4608 22.3108C96.7911 21.5708 96.2888 20.7008 95.954 19.7008C95.6388 18.7007 95.4812 17.6207 95.4812 16.4608ZM105.822 14.7508C105.802 14.3708 105.734 14.0008 105.615 13.6408C105.517 13.2808 105.349 12.9608 105.113 12.6808C104.896 12.4007 104.611 12.1708 104.256 11.9908C103.921 11.8108 103.498 11.7208 102.986 11.7208C102.493 11.7208 102.07 11.8108 101.715 11.9908C101.361 12.1508 101.065 12.3707 100.829 12.6508C100.593 12.9308 100.405 13.2608 100.268 13.6408C100.149 14.0008 100.061 14.3708 100.002 14.7508H105.822ZM119.678 24.5308C118.398 24.5108 117.355 24.3707 116.547 24.1108C115.759 23.8508 115.128 23.4908 114.656 23.0308C114.202 22.5508 113.887 21.9808 113.71 21.3208C113.553 20.6408 113.474 19.8808 113.474 19.0408V1.67078L117.876 0.950775V18.1408C117.876 18.5408 117.906 18.9008 117.965 19.2208C118.024 19.5407 118.132 19.8107 118.29 20.0308C118.467 20.2508 118.714 20.4308 119.028 20.5708C119.343 20.7107 119.767 20.8007 120.299 20.8408L119.678 24.5308Z" fill="#F4EDE8"/>
</g>
<defs>
<clipPath id="clip0">
<rect width="150" height="30" fill="white"/>
</clipPath>
</defs>
</svg>
