<svg width="90" height="80" viewBox="0 0 90 80" xmlns="http://www.w3.org/2000/svg">
  <g transform="translate(-6129 2263)">
    <g transform="translate(5319 -2551)">
      <circle
        fill="#7051dc"
        cx="40"
        cy="40"
        r="40"
        transform="translate(810 288)"
      />
      <g transform="translate(-0.385 -0.376)">
        <path
          fill="#fff"
          d="M234.249,283.966c-.8-4.57-4.193-4.417-8.277-3.7s-7.32,1.733-6.514,6.3,4.771,7.693,8.856,6.972S235.055,288.538,234.249,283.966Zm0,0"
          transform="translate(624.286 43.709)"
        />
        <path
          d="M21.909,23.4c-1.7-.524-3.861-1.943-4.516-5.727a11.447,11.447,0,0,1,1.439-7.937,9.335,9.335,0,0,1,6.347-4.458,8.913,8.913,0,0,1,1.569-.14c4.726,0,9,3.783,9.924,9.085,1.282,7.382-5.473,8.591-8.358,9.107a22.189,22.189,0,0,1-3.841.422A8.623,8.623,0,0,1,21.909,23.4ZM26,10a4.673,4.673,0,0,0-3.149,2.259,6.6,6.6,0,0,0-.8,4.576c.292,1.675.882,1.857,1.235,1.965a4.145,4.145,0,0,0,1.2.145,18.136,18.136,0,0,0,3.013-.349c4.781-.855,4.841-1.705,4.521-3.546-.517-2.975-2.79-5.117-5.26-5.117A4.276,4.276,0,0,0,26,10ZM.1,14.948A6.893,6.893,0,0,1,1.222,9.829,6.7,6.7,0,0,1,5.577,7.011a6.63,6.63,0,0,1,5.042,1.135,6.818,6.818,0,0,1,2.773,4.424,2.4,2.4,0,0,1-1.918,2.78A2.368,2.368,0,0,1,8.737,13.4a2.042,2.042,0,0,0-.83-1.322A1.985,1.985,0,0,0,6.4,11.74a2.005,2.005,0,0,0-1.3.843,2.058,2.058,0,0,0-.335,1.533A2.4,2.4,0,0,1,2.843,16.9a2.454,2.454,0,0,1-.412.036A2.376,2.376,0,0,1,.1,14.948ZM38.686,8.041A6.851,6.851,0,0,1,44.159.1a6.766,6.766,0,0,1,7.815,5.557,2.4,2.4,0,0,1-1.918,2.78A2.369,2.369,0,0,1,47.318,6.5,2.022,2.022,0,0,0,44.98,4.833a2.049,2.049,0,0,0-1.637,2.374,2.4,2.4,0,0,1-1.918,2.782,2.47,2.47,0,0,1-.414.036A2.375,2.375,0,0,1,38.686,8.041Z"
          transform="translate(824.688 316.189)"
        />
      </g>
    </g>
    <path
      fill="#fff"
      d="M-9.695-4.751A6.126,6.126,0,0,1-10.2-2.174,3.887,3.887,0,0,1-11.656-.465a3.953,3.953,0,0,1-2.169.6,3.98,3.98,0,0,1-2.159-.595,3.923,3.923,0,0,1-1.47-1.7,5.949,5.949,0,0,1-.528-2.54v-.492a6.094,6.094,0,0,1,.518-2.587A3.919,3.919,0,0,1-16-9.492a3.958,3.958,0,0,1,2.162-.6,3.958,3.958,0,0,1,2.162.6,3.919,3.919,0,0,1,1.464,1.716A6.076,6.076,0,0,1-9.695-5.2ZM-11.726-5.2a4.264,4.264,0,0,0-.548-2.379,1.774,1.774,0,0,0-1.564-.813,1.774,1.774,0,0,0-1.557.8,4.215,4.215,0,0,0-.555,2.355v.485A4.318,4.318,0,0,0-15.4-2.386a1.771,1.771,0,0,0,1.577.841,1.754,1.754,0,0,0,1.551-.81,4.292,4.292,0,0,0,.548-2.362Zm3.061,1.436a4.471,4.471,0,0,1,.414-1.962A3.078,3.078,0,0,1-7.058-7.062,3.42,3.42,0,0,1-5.25-7.533a3.252,3.252,0,0,1,2.389.916A3.717,3.717,0,0,1-1.829-4.129l.013.506A3.92,3.92,0,0,1-2.744-.892,3.193,3.193,0,0,1-5.237.137a3.209,3.209,0,0,1-2.5-1.025,3.989,3.989,0,0,1-.932-2.789Zm1.931.144a2.806,2.806,0,0,0,.388,1.61,1.27,1.27,0,0,0,1.109.557,1.273,1.273,0,0,0,1.1-.55,3.072,3.072,0,0,0,.394-1.76,2.778,2.778,0,0,0-.394-1.6A1.273,1.273,0,0,0-5.25-5.934a1.253,1.253,0,0,0-1.1.564A3.124,3.124,0,0,0-6.734-3.623Zm5.808-.144A4.471,4.471,0,0,1-.512-5.729,3.078,3.078,0,0,1,.681-7.062a3.42,3.42,0,0,1,1.808-.472,3.252,3.252,0,0,1,2.389.916A3.717,3.717,0,0,1,5.911-4.129l.013.506A3.92,3.92,0,0,1,4.995-.892,3.193,3.193,0,0,1,2.5.137,3.209,3.209,0,0,1,.006-.889,3.989,3.989,0,0,1-.926-3.678Zm1.931.144a2.806,2.806,0,0,0,.388,1.61A1.27,1.27,0,0,0,2.5-1.456a1.273,1.273,0,0,0,1.1-.55,3.072,3.072,0,0,0,.394-1.76,2.778,2.778,0,0,0-.394-1.6,1.273,1.273,0,0,0-1.109-.567,1.253,1.253,0,0,0-1.1.564A3.124,3.124,0,0,0,1.005-3.623ZM9-6.59a2.391,2.391,0,0,1,1.931-.943q2.352,0,2.386,2.8V0H11.384V-4.683a1.4,1.4,0,0,0-.267-.94,1.131,1.131,0,0,0-.889-.3A1.308,1.308,0,0,0,9-5.257V0H7.067V-10.5H9Zm7.739,3.534h-1.6l-.227-6.9h2.058Zm-.8,1.08a1.069,1.069,0,0,1,.785.294,1.012,1.012,0,0,1,.3.752,1,1,0,0,1-.3.745,1.069,1.069,0,0,1-.785.294,1.06,1.06,0,0,1-.779-.294,1,1,0,0,1-.3-.745,1.015,1.015,0,0,1,.3-.749A1.053,1.053,0,0,1,15.935-1.976Z"
      transform="translate(6201.982 -2196.5)"
    />
  </g>
</svg>
